# Tiled2Unity generated file. Do not modify by hand.
# Wavefront file for 'Level_01_mesh_0003.obj'

# Vertices (Count = 732)
v -9.92 -2.72 0
v -10.08 -2.72 0
v -10.08 -2.56 0
v -9.92 -2.56 0
v -10.08 -2.72 0
v -10.24 -2.72 0
v -10.24 -2.56 0
v -10.08 -2.56 0
v -10.24 -2.72 0
v -10.4 -2.72 0
v -10.4 -2.56 0
v -10.24 -2.56 0
v -10.4 -2.72 0
v -10.56 -2.72 0
v -10.56 -2.56 0
v -10.4 -2.56 0
v -10.56 -2.72 0
v -10.72 -2.72 0
v -10.72 -2.56 0
v -10.56 -2.56 0
v -10.72 -2.72 0
v -10.88 -2.72 0
v -10.88 -2.56 0
v -10.72 -2.56 0
v -10.88 -2.72 0
v -11.04 -2.72 0
v -11.04 -2.56 0
v -10.88 -2.56 0
v -11.04 -2.72 0
v -11.2 -2.72 0
v -11.2 -2.56 0
v -11.04 -2.56 0
v -11.2 -2.72 0
v -11.36 -2.72 0
v -11.36 -2.56 0
v -11.2 -2.56 0
v -11.36 -2.72 0
v -11.52 -2.72 0
v -11.52 -2.56 0
v -11.36 -2.56 0
v -11.52 -2.72 0
v -11.68 -2.72 0
v -11.68 -2.56 0
v -11.52 -2.56 0
v -11.68 -2.72 0
v -11.84 -2.72 0
v -11.84 -2.56 0
v -11.68 -2.56 0
v -11.84 -2.72 0
v -12 -2.72 0
v -12 -2.56 0
v -11.84 -2.56 0
v -12 -2.72 0
v -12.16 -2.72 0
v -12.16 -2.56 0
v -12 -2.56 0
v -12.16 -2.72 0
v -12.32 -2.72 0
v -12.32 -2.56 0
v -12.16 -2.56 0
v -12.32 -2.72 0
v -12.48 -2.72 0
v -12.48 -2.56 0
v -12.32 -2.56 0
v -12.48 -2.72 0
v -12.64 -2.72 0
v -12.64 -2.56 0
v -12.48 -2.56 0
v -12.64 -2.72 0
v -12.8 -2.72 0
v -12.8 -2.56 0
v -12.64 -2.56 0
v -12.8 -2.72 0
v -12.96 -2.72 0
v -12.96 -2.56 0
v -12.8 -2.56 0
v -12.96 -2.72 0
v -13.12 -2.72 0
v -13.12 -2.56 0
v -12.96 -2.56 0
v -13.12 -2.72 0
v -13.28 -2.72 0
v -13.28 -2.56 0
v -13.12 -2.56 0
v -13.28 -2.72 0
v -13.44 -2.72 0
v -13.44 -2.56 0
v -13.28 -2.56 0
v -13.44 -2.72 0
v -13.6 -2.72 0
v -13.6 -2.56 0
v -13.44 -2.56 0
v -13.6 -2.72 0
v -13.76 -2.72 0
v -13.76 -2.56 0
v -13.6 -2.56 0
v -11.52 -2.88 0
v -11.68 -2.88 0
v -11.68 -2.72 0
v -11.52 -2.72 0
v -11.52 -3.04 0
v -11.68 -3.04 0
v -11.68 -2.88 0
v -11.52 -2.88 0
v -11.52 -3.2 0
v -11.68 -3.2 0
v -11.68 -3.04 0
v -11.52 -3.04 0
v -11.52 -3.36 0
v -11.68 -3.36 0
v -11.68 -3.2 0
v -11.52 -3.2 0
v -11.04 -3.52 0
v -11.2 -3.52 0
v -11.2 -3.36 0
v -11.04 -3.36 0
v -11.52 -3.52 0
v -11.68 -3.52 0
v -11.68 -3.36 0
v -11.52 -3.36 0
v -11.04 -3.68 0
v -11.2 -3.68 0
v -11.2 -3.52 0
v -11.04 -3.52 0
v -11.52 -3.68 0
v -11.68 -3.68 0
v -11.68 -3.52 0
v -11.52 -3.52 0
v -11.04 -3.84 0
v -11.2 -3.84 0
v -11.2 -3.68 0
v -11.04 -3.68 0
v -11.52 -3.84 0
v -11.68 -3.84 0
v -11.68 -3.68 0
v -11.52 -3.68 0
v -11.04 -4 0
v -11.2 -4 0
v -11.2 -3.84 0
v -11.04 -3.84 0
v -11.52 -4 0
v -11.68 -4 0
v -11.68 -3.84 0
v -11.52 -3.84 0
v -11.04 -4.16 0
v -11.2 -4.16 0
v -11.2 -4 0
v -11.04 -4 0
v -11.52 -4.16 0
v -11.68 -4.16 0
v -11.68 -4 0
v -11.52 -4 0
v -7.04 -4.32 0
v -7.2 -4.32 0
v -7.2 -4.16 0
v -7.04 -4.16 0
v -7.2 -4.32 0
v -7.36 -4.32 0
v -7.36 -4.16 0
v -7.2 -4.16 0
v -7.36 -4.32 0
v -7.52 -4.32 0
v -7.52 -4.16 0
v -7.36 -4.16 0
v -7.52 -4.32 0
v -7.68 -4.32 0
v -7.68 -4.16 0
v -7.52 -4.16 0
v -7.68 -4.32 0
v -7.84 -4.32 0
v -7.84 -4.16 0
v -7.68 -4.16 0
v -7.84 -4.32 0
v -8 -4.32 0
v -8 -4.16 0
v -7.84 -4.16 0
v -8 -4.32 0
v -8.16 -4.32 0
v -8.16 -4.16 0
v -8 -4.16 0
v -8.16 -4.32 0
v -8.32 -4.32 0
v -8.32 -4.16 0
v -8.16 -4.16 0
v -8.32 -4.32 0
v -8.48 -4.32 0
v -8.48 -4.16 0
v -8.32 -4.16 0
v -8.48 -4.32 0
v -8.639999 -4.32 0
v -8.639999 -4.16 0
v -8.48 -4.16 0
v -8.639999 -4.32 0
v -8.8 -4.32 0
v -8.8 -4.16 0
v -8.639999 -4.16 0
v -8.8 -4.32 0
v -8.96 -4.32 0
v -8.96 -4.16 0
v -8.8 -4.16 0
v -8.96 -4.32 0
v -9.12 -4.32 0
v -9.12 -4.16 0
v -8.96 -4.16 0
v -9.12 -4.32 0
v -9.28 -4.32 0
v -9.28 -4.16 0
v -9.12 -4.16 0
v -9.28 -4.32 0
v -9.44 -4.32 0
v -9.44 -4.16 0
v -9.28 -4.16 0
v -9.44 -4.32 0
v -9.599999 -4.32 0
v -9.599999 -4.16 0
v -9.44 -4.16 0
v -9.599999 -4.32 0
v -9.76 -4.32 0
v -9.76 -4.16 0
v -9.599999 -4.16 0
v -9.76 -4.32 0
v -9.92 -4.32 0
v -9.92 -4.16 0
v -9.76 -4.16 0
v -11.04 -4.32 0
v -11.2 -4.32 0
v -11.2 -4.16 0
v -11.04 -4.16 0
v -11.52 -4.32 0
v -11.68 -4.32 0
v -11.68 -4.16 0
v -11.52 -4.16 0
v -6.72 -4.48 0
v -6.88 -4.48 0
v -6.88 -4.32 0
v -6.72 -4.32 0
v -6.88 -4.48 0
v -7.04 -4.48 0
v -7.04 -4.32 0
v -6.88 -4.32 0
v -7.04 -4.48 0
v -7.2 -4.48 0
v -7.2 -4.32 0
v -7.04 -4.32 0
v -11.04 -4.48 0
v -11.2 -4.48 0
v -11.2 -4.32 0
v -11.04 -4.32 0
v -11.52 -4.48 0
v -11.68 -4.48 0
v -11.68 -4.32 0
v -11.52 -4.32 0
v -13.44 -4.48 0
v -13.6 -4.48 0
v -13.6 -4.32 0
v -13.44 -4.32 0
v -13.6 -4.48 0
v -13.76 -4.48 0
v -13.76 -4.32 0
v -13.6 -4.32 0
v -6.24 -4.64 0
v -6.4 -4.64 0
v -6.4 -4.48 0
v -6.24 -4.48 0
v -11.04 -4.64 0
v -11.2 -4.64 0
v -11.2 -4.48 0
v -11.04 -4.48 0
v -11.52 -4.64 0
v -11.68 -4.64 0
v -11.68 -4.48 0
v -11.52 -4.48 0
v -13.6 -4.64 0
v -13.76 -4.64 0
v -13.76 -4.48 0
v -13.6 -4.48 0
v -13.76 -4.64 0
v -13.92 -4.64 0
v -13.92 -4.48 0
v -13.76 -4.48 0
v -6.72 -4.8 0
v -6.88 -4.8 0
v -6.88 -4.64 0
v -6.72 -4.64 0
v -6.88 -4.8 0
v -7.04 -4.8 0
v -7.04 -4.64 0
v -6.88 -4.64 0
v -7.04 -4.8 0
v -7.2 -4.8 0
v -7.2 -4.64 0
v -7.04 -4.64 0
v -11.04 -4.8 0
v -11.2 -4.8 0
v -11.2 -4.64 0
v -11.04 -4.64 0
v -11.52 -4.8 0
v -11.68 -4.8 0
v -11.68 -4.64 0
v -11.52 -4.64 0
v -13.92 -4.8 0
v -14.08 -4.8 0
v -14.08 -4.64 0
v -13.92 -4.64 0
v -14.08 -4.8 0
v -14.24 -4.8 0
v -14.24 -4.64 0
v -14.08 -4.64 0
v -11.04 -4.96 0
v -11.2 -4.96 0
v -11.2 -4.8 0
v -11.04 -4.8 0
v -11.52 -4.96 0
v -11.68 -4.96 0
v -11.68 -4.8 0
v -11.52 -4.8 0
v -14.24 -4.96 0
v -14.4 -4.96 0
v -14.4 -4.8 0
v -14.24 -4.8 0
v -14.4 -4.96 0
v -14.56 -4.96 0
v -14.56 -4.8 0
v -14.4 -4.8 0
v -6.72 -5.12 0
v -6.88 -5.12 0
v -6.88 -4.96 0
v -6.72 -4.96 0
v -6.88 -5.12 0
v -7.04 -5.12 0
v -7.04 -4.96 0
v -6.88 -4.96 0
v -7.04 -5.12 0
v -7.2 -5.12 0
v -7.2 -4.96 0
v -7.04 -4.96 0
v -11.04 -5.12 0
v -11.2 -5.12 0
v -11.2 -4.96 0
v -11.04 -4.96 0
v -11.52 -5.12 0
v -11.68 -5.12 0
v -11.68 -4.96 0
v -11.52 -4.96 0
v -14.56 -5.12 0
v -14.72 -5.12 0
v -14.72 -4.96 0
v -14.56 -4.96 0
v -14.72 -5.12 0
v -14.88 -5.12 0
v -14.88 -4.96 0
v -14.72 -4.96 0
v -11.04 -5.28 0
v -11.2 -5.28 0
v -11.2 -5.12 0
v -11.04 -5.12 0
v -11.52 -5.28 0
v -11.68 -5.28 0
v -11.68 -5.12 0
v -11.52 -5.12 0
v -14.72 -5.28 0
v -14.88 -5.28 0
v -14.88 -5.12 0
v -14.72 -5.12 0
v -14.88 -5.28 0
v -15.04 -5.28 0
v -15.04 -5.12 0
v -14.88 -5.12 0
v -6.72 -5.44 0
v -6.88 -5.44 0
v -6.88 -5.28 0
v -6.72 -5.28 0
v -6.88 -5.44 0
v -7.04 -5.44 0
v -7.04 -5.28 0
v -6.88 -5.28 0
v -7.04 -5.44 0
v -7.2 -5.44 0
v -7.2 -5.28 0
v -7.04 -5.28 0
v -11.04 -5.44 0
v -11.2 -5.44 0
v -11.2 -5.28 0
v -11.04 -5.28 0
v -11.52 -5.44 0
v -11.68 -5.44 0
v -11.68 -5.28 0
v -11.52 -5.28 0
v -15.04 -5.44 0
v -15.2 -5.44 0
v -15.2 -5.28 0
v -15.04 -5.28 0
v -11.04 -5.6 0
v -11.2 -5.6 0
v -11.2 -5.44 0
v -11.04 -5.44 0
v -11.52 -5.6 0
v -11.68 -5.6 0
v -11.68 -5.44 0
v -11.52 -5.44 0
v -15.2 -5.6 0
v -15.36 -5.6 0
v -15.36 -5.44 0
v -15.2 -5.44 0
v -11.04 -5.76 0
v -11.2 -5.76 0
v -11.2 -5.6 0
v -11.04 -5.6 0
v -11.52 -5.76 0
v -11.68 -5.76 0
v -11.68 -5.6 0
v -11.52 -5.6 0
v -15.36 -5.76 0
v -15.52 -5.76 0
v -15.52 -5.6 0
v -15.36 -5.6 0
v -6.72 -5.92 0
v -6.88 -5.92 0
v -6.88 -5.76 0
v -6.72 -5.76 0
v -6.88 -5.92 0
v -7.04 -5.92 0
v -7.04 -5.76 0
v -6.88 -5.76 0
v -7.04 -5.92 0
v -7.2 -5.92 0
v -7.2 -5.76 0
v -7.04 -5.76 0
v -11.52 -5.92 0
v -11.68 -5.92 0
v -11.68 -5.76 0
v -11.52 -5.76 0
v -6.72 -6.24 0
v -6.88 -6.24 0
v -6.88 -6.08 0
v -6.72 -6.08 0
v -6.88 -6.24 0
v -7.04 -6.24 0
v -7.04 -6.08 0
v -6.88 -6.08 0
v -7.04 -6.24 0
v -7.2 -6.24 0
v -7.2 -6.08 0
v -7.04 -6.08 0
v -6.72 -6.56 0
v -6.88 -6.56 0
v -6.88 -6.4 0
v -6.72 -6.4 0
v -6.88 -6.56 0
v -7.04 -6.56 0
v -7.04 -6.4 0
v -6.88 -6.4 0
v -7.04 -6.56 0
v -7.2 -6.56 0
v -7.2 -6.4 0
v -7.04 -6.4 0
v -13.28 -6.56 0
v -13.44 -6.56 0
v -13.44 -6.4 0
v -13.28 -6.4 0
v -13.28 -6.72 0
v -13.44 -6.72 0
v -13.44 -6.56 0
v -13.28 -6.56 0
v -6.72 -6.88 0
v -6.88 -6.88 0
v -6.88 -6.72 0
v -6.72 -6.72 0
v -6.88 -6.88 0
v -7.04 -6.88 0
v -7.04 -6.72 0
v -6.88 -6.72 0
v -7.04 -6.88 0
v -7.2 -6.88 0
v -7.2 -6.72 0
v -7.04 -6.72 0
v -13.44 -6.88 0
v -13.6 -6.88 0
v -13.6 -6.72 0
v -13.44 -6.72 0
v -13.44 -7.04 0
v -13.6 -7.04 0
v -13.6 -6.88 0
v -13.44 -6.88 0
v -6.72 -7.2 0
v -6.88 -7.2 0
v -6.88 -7.04 0
v -6.72 -7.04 0
v -6.88 -7.2 0
v -7.04 -7.2 0
v -7.04 -7.04 0
v -6.88 -7.04 0
v -7.04 -7.2 0
v -7.2 -7.2 0
v -7.2 -7.04 0
v -7.04 -7.04 0
v -13.44 -7.2 0
v -13.6 -7.2 0
v -13.6 -7.04 0
v -13.44 -7.04 0
v -13.6 -7.36 0
v -13.76 -7.36 0
v -13.76 -7.2 0
v -13.6 -7.2 0
v -6.72 -7.52 0
v -6.88 -7.52 0
v -6.88 -7.36 0
v -6.72 -7.36 0
v -6.88 -7.52 0
v -7.04 -7.52 0
v -7.04 -7.36 0
v -6.88 -7.36 0
v -7.04 -7.52 0
v -7.2 -7.52 0
v -7.2 -7.36 0
v -7.04 -7.36 0
v -13.6 -7.52 0
v -13.76 -7.52 0
v -13.76 -7.36 0
v -13.6 -7.36 0
v -13.6 -7.68 0
v -13.76 -7.68 0
v -13.76 -7.52 0
v -13.6 -7.52 0
v -13.76 -7.84 0
v -13.92 -7.84 0
v -13.92 -7.68 0
v -13.76 -7.68 0
v -6.72 -8 0
v -6.88 -8 0
v -6.88 -7.84 0
v -6.72 -7.84 0
v -6.88 -8 0
v -7.04 -8 0
v -7.04 -7.84 0
v -6.88 -7.84 0
v -7.04 -8 0
v -7.2 -8 0
v -7.2 -7.84 0
v -7.04 -7.84 0
v -8.96 -8 0
v -9.12 -8 0
v -9.12 -7.84 0
v -8.96 -7.84 0
v -13.76 -8 0
v -13.92 -8 0
v -13.92 -7.84 0
v -13.76 -7.84 0
v -13.76 -8.16 0
v -13.92 -8.16 0
v -13.92 -8 0
v -13.76 -8 0
v -6.72 -8.32 0
v -6.88 -8.32 0
v -6.88 -8.16 0
v -6.72 -8.16 0
v -6.88 -8.32 0
v -7.04 -8.32 0
v -7.04 -8.16 0
v -6.88 -8.16 0
v -7.04 -8.32 0
v -7.2 -8.32 0
v -7.2 -8.16 0
v -7.04 -8.16 0
v -13.92 -8.32 0
v -14.08 -8.32 0
v -14.08 -8.16 0
v -13.92 -8.16 0
v -13.92 -8.48 0
v -14.08 -8.48 0
v -14.08 -8.32 0
v -13.92 -8.32 0
v -4.16 -8.639999 0
v -4.32 -8.639999 0
v -4.32 -8.48 0
v -4.16 -8.48 0
v -4.32 -8.639999 0
v -4.48 -8.639999 0
v -4.48 -8.48 0
v -4.32 -8.48 0
v -14.08 -8.639999 0
v -14.24 -8.639999 0
v -14.24 -8.48 0
v -14.08 -8.48 0
v -4 -8.8 0
v -4.16 -8.8 0
v -4.16 -8.639999 0
v -4 -8.639999 0
v -14.08 -8.8 0
v -14.24 -8.8 0
v -14.24 -8.639999 0
v -14.08 -8.639999 0
v -15.84 -8.8 0
v -16 -8.8 0
v -16 -8.639999 0
v -15.84 -8.639999 0
v -4 -8.96 0
v -4.16 -8.96 0
v -4.16 -8.8 0
v -4 -8.8 0
v -14.24 -8.96 0
v -14.4 -8.96 0
v -14.4 -8.8 0
v -14.24 -8.8 0
v -15.84 -8.96 0
v -16 -8.96 0
v -16 -8.8 0
v -15.84 -8.8 0
v -4 -9.12 0
v -4.16 -9.12 0
v -4.16 -8.96 0
v -4 -8.96 0
v -14.24 -9.12 0
v -14.4 -9.12 0
v -14.4 -8.96 0
v -14.24 -8.96 0
v -15.84 -9.12 0
v -16 -9.12 0
v -16 -8.96 0
v -15.84 -8.96 0
v -4 -9.28 0
v -4.16 -9.28 0
v -4.16 -9.12 0
v -4 -9.12 0
v -14.4 -9.28 0
v -14.56 -9.28 0
v -14.56 -9.12 0
v -14.4 -9.12 0
v -15.84 -9.28 0
v -16 -9.28 0
v -16 -9.12 0
v -15.84 -9.12 0
v -4 -9.44 0
v -4.16 -9.44 0
v -4.16 -9.28 0
v -4 -9.28 0
v -14.4 -9.44 0
v -14.56 -9.44 0
v -14.56 -9.28 0
v -14.4 -9.28 0
v -15.84 -9.44 0
v -16 -9.44 0
v -16 -9.28 0
v -15.84 -9.28 0
v -4 -9.599999 0
v -4.16 -9.599999 0
v -4.16 -9.44 0
v -4 -9.44 0
v -4.16 -9.599999 0
v -4.32 -9.599999 0
v -4.32 -9.44 0
v -4.16 -9.44 0
v -14.4 -9.599999 0
v -14.56 -9.599999 0
v -14.56 -9.44 0
v -14.4 -9.44 0
v -15.84 -9.599999 0
v -16 -9.599999 0
v -16 -9.44 0
v -15.84 -9.44 0
v -4 -9.76 0
v -4.16 -9.76 0
v -4.16 -9.599999 0
v -4 -9.599999 0
v -4.16 -9.76 0
v -4.32 -9.76 0
v -4.32 -9.599999 0
v -4.16 -9.599999 0
v -14.56 -9.76 0
v -14.72 -9.76 0
v -14.72 -9.599999 0
v -14.56 -9.599999 0
v -15.84 -9.76 0
v -16 -9.76 0
v -16 -9.599999 0
v -15.84 -9.599999 0
v -4 -9.92 0
v -4.16 -9.92 0
v -4.16 -9.76 0
v -4 -9.76 0
v -4.16 -9.92 0
v -4.32 -9.92 0
v -4.32 -9.76 0
v -4.16 -9.76 0
v -14.56 -9.92 0
v -14.72 -9.92 0
v -14.72 -9.76 0
v -14.56 -9.76 0
v -15.84 -9.92 0
v -16 -9.92 0
v -16 -9.76 0
v -15.84 -9.76 0
v -4 -10.08 0
v -4.16 -10.08 0
v -4.16 -9.92 0
v -4 -9.92 0
v -4.16 -10.08 0
v -4.32 -10.08 0
v -4.32 -9.92 0
v -4.16 -9.92 0
v -4 -10.24 0
v -4.16 -10.24 0
v -4.16 -10.08 0
v -4 -10.08 0
v -4.16 -10.24 0
v -4.32 -10.24 0
v -4.32 -10.08 0
v -4.16 -10.08 0
v -2.72 -10.4 0
v -2.88 -10.4 0
v -2.88 -10.24 0
v -2.72 -10.24 0
v -3.52 -10.4 0
v -3.68 -10.4 0
v -3.68 -10.24 0
v -3.52 -10.24 0
v -4 -10.4 0
v -4.16 -10.4 0
v -4.16 -10.24 0
v -4 -10.24 0
v -4.16 -10.4 0
v -4.32 -10.4 0
v -4.32 -10.24 0
v -4.16 -10.24 0
v -4 -10.56 0
v -4.16 -10.56 0
v -4.16 -10.4 0
v -4 -10.4 0
v -4.16 -10.56 0
v -4.32 -10.56 0
v -4.32 -10.4 0
v -4.16 -10.4 0

# Texture cooridinates (Count = 46)
vt 0.6 0.3478261
vt 0.64 0.3478261
vt 0.64 0.3913043
vt 0.6 0.3913043
vt 0.68 0.3478261
vt 0.72 0.3478261
vt 0.72 0.3913043
vt 0.68 0.3913043
vt 0.28 0.5217391
vt 0.32 0.5217391
vt 0.32 0.5652174
vt 0.28 0.5652174
vt 0.76 0.3478261
vt 0.8 0.3478261
vt 0.8 0.3913043
vt 0.76 0.3913043
vt 0.16 0.173913
vt 0.2 0.173913
vt 0.2 0.2173913
vt 0.16 0.2173913
vt 0.4 0.7391304
vt 0.36 0.7391304
vt 0.36 0.7826087
vt 0.4 0.7826087
vt 0.32 0.7391304
vt 0.32 0.7826087
vt 0.28 0.7391304
vt 0.28 0.7826087
vt 0.16 0.7826087
vt 0.2 0.7826087
vt 0.2 0.8260869
vt 0.16 0.8260869
vt 0.68 0.173913
vt 0.72 0.173913
vt 0.72 0.2173913
vt 0.68 0.2173913
vt 0.4 0.5217391
vt 0.44 0.5217391
vt 0.44 0.5652174
vt 0.4 0.5652174
vt 0.48 0.5217391
vt 0.48 0.5652174
vt 0.08 0.173913
vt 0.12 0.173913
vt 0.12 0.2173913
vt 0.08 0.2173913

# Normal
vn 0 0 -1

# Mesh description
g Level_01_mesh_0003

# Faces
f 1/1/1 2/2/1 3/3/1 4/4/1
f 5/5/1 6/6/1 7/7/1 8/8/1
f 9/5/1 10/6/1 11/7/1 12/8/1
f 13/5/1 14/6/1 15/7/1 16/8/1
f 17/5/1 18/6/1 19/7/1 20/8/1
f 21/5/1 22/6/1 23/7/1 24/8/1
f 25/5/1 26/6/1 27/7/1 28/8/1
f 29/5/1 30/6/1 31/7/1 32/8/1
f 33/5/1 34/6/1 35/7/1 36/8/1
f 37/5/1 38/6/1 39/7/1 40/8/1
f 41/9/1 42/10/1 43/11/1 44/12/1
f 45/5/1 46/6/1 47/7/1 48/8/1
f 49/5/1 50/6/1 51/7/1 52/8/1
f 53/5/1 54/6/1 55/7/1 56/8/1
f 57/5/1 58/6/1 59/7/1 60/8/1
f 61/5/1 62/6/1 63/7/1 64/8/1
f 65/5/1 66/6/1 67/7/1 68/8/1
f 69/5/1 70/6/1 71/7/1 72/8/1
f 73/5/1 74/6/1 75/7/1 76/8/1
f 77/5/1 78/6/1 79/7/1 80/8/1
f 81/5/1 82/6/1 83/7/1 84/8/1
f 85/5/1 86/6/1 87/7/1 88/8/1
f 89/5/1 90/6/1 91/7/1 92/8/1
f 93/13/1 94/14/1 95/15/1 96/16/1
f 97/9/1 98/10/1 99/11/1 100/12/1
f 101/9/1 102/10/1 103/11/1 104/12/1
f 105/9/1 106/10/1 107/11/1 108/12/1
f 109/9/1 110/10/1 111/11/1 112/12/1
f 113/17/1 114/18/1 115/19/1 116/20/1
f 117/9/1 118/10/1 119/11/1 120/12/1
f 121/17/1 122/18/1 123/19/1 124/20/1
f 125/9/1 126/10/1 127/11/1 128/12/1
f 129/17/1 130/18/1 131/19/1 132/20/1
f 133/9/1 134/10/1 135/11/1 136/12/1
f 137/17/1 138/18/1 139/19/1 140/20/1
f 141/9/1 142/10/1 143/11/1 144/12/1
f 145/17/1 146/18/1 147/19/1 148/20/1
f 149/9/1 150/10/1 151/11/1 152/12/1
f 153/1/1 154/2/1 155/3/1 156/4/1
f 157/5/1 158/6/1 159/7/1 160/8/1
f 161/5/1 162/6/1 163/7/1 164/8/1
f 165/5/1 166/6/1 167/7/1 168/8/1
f 169/5/1 170/6/1 171/7/1 172/8/1
f 173/5/1 174/6/1 175/7/1 176/8/1
f 177/5/1 178/6/1 179/7/1 180/8/1
f 181/5/1 182/6/1 183/7/1 184/8/1
f 185/5/1 186/6/1 187/7/1 188/8/1
f 189/5/1 190/6/1 191/7/1 192/8/1
f 193/5/1 194/6/1 195/7/1 196/8/1
f 197/5/1 198/6/1 199/7/1 200/8/1
f 201/5/1 202/6/1 203/7/1 204/8/1
f 205/5/1 206/6/1 207/7/1 208/8/1
f 209/5/1 210/6/1 211/7/1 212/8/1
f 213/5/1 214/6/1 215/7/1 216/8/1
f 217/5/1 218/6/1 219/7/1 220/8/1
f 221/13/1 222/14/1 223/15/1 224/16/1
f 225/17/1 226/18/1 227/19/1 228/20/1
f 229/9/1 230/10/1 231/11/1 232/12/1
f 233/21/1 234/22/1 235/23/1 236/24/1
f 237/22/1 238/25/1 239/26/1 240/23/1
f 241/25/1 242/27/1 243/28/1 244/26/1
f 245/17/1 246/18/1 247/19/1 248/20/1
f 249/9/1 250/10/1 251/11/1 252/12/1
f 253/29/1 254/30/1 255/31/1 256/32/1
f 257/29/1 258/30/1 259/31/1 260/32/1
f 261/29/1 262/30/1 263/31/1 264/32/1
f 265/17/1 266/18/1 267/19/1 268/20/1
f 269/9/1 270/10/1 271/11/1 272/12/1
f 273/29/1 274/30/1 275/31/1 276/32/1
f 277/29/1 278/30/1 279/31/1 280/32/1
f 281/21/1 282/22/1 283/23/1 284/24/1
f 285/22/1 286/25/1 287/26/1 288/23/1
f 289/25/1 290/27/1 291/28/1 292/26/1
f 293/17/1 294/18/1 295/19/1 296/20/1
f 297/9/1 298/10/1 299/11/1 300/12/1
f 301/29/1 302/30/1 303/31/1 304/32/1
f 305/29/1 306/30/1 307/31/1 308/32/1
f 309/17/1 310/18/1 311/19/1 312/20/1
f 313/9/1 314/10/1 315/11/1 316/12/1
f 317/29/1 318/30/1 319/31/1 320/32/1
f 321/29/1 322/30/1 323/31/1 324/32/1
f 325/21/1 326/22/1 327/23/1 328/24/1
f 329/22/1 330/25/1 331/26/1 332/23/1
f 333/25/1 334/27/1 335/28/1 336/26/1
f 337/17/1 338/18/1 339/19/1 340/20/1
f 341/9/1 342/10/1 343/11/1 344/12/1
f 345/29/1 346/30/1 347/31/1 348/32/1
f 349/29/1 350/30/1 351/31/1 352/32/1
f 353/17/1 354/18/1 355/19/1 356/20/1
f 357/9/1 358/10/1 359/11/1 360/12/1
f 361/29/1 362/30/1 363/31/1 364/32/1
f 365/29/1 366/30/1 367/31/1 368/32/1
f 369/21/1 370/22/1 371/23/1 372/24/1
f 373/22/1 374/25/1 375/26/1 376/23/1
f 377/25/1 378/27/1 379/28/1 380/26/1
f 381/17/1 382/18/1 383/19/1 384/20/1
f 385/9/1 386/10/1 387/11/1 388/12/1
f 389/29/1 390/30/1 391/31/1 392/32/1
f 393/17/1 394/18/1 395/19/1 396/20/1
f 397/9/1 398/10/1 399/11/1 400/12/1
f 401/29/1 402/30/1 403/31/1 404/32/1
f 405/17/1 406/18/1 407/19/1 408/20/1
f 409/9/1 410/10/1 411/11/1 412/12/1
f 413/29/1 414/30/1 415/31/1 416/32/1
f 417/21/1 418/22/1 419/23/1 420/24/1
f 421/22/1 422/25/1 423/26/1 424/23/1
f 425/25/1 426/27/1 427/28/1 428/26/1
f 429/9/1 430/10/1 431/11/1 432/12/1
f 433/21/1 434/22/1 435/23/1 436/24/1
f 437/22/1 438/25/1 439/26/1 440/23/1
f 441/25/1 442/27/1 443/28/1 444/26/1
f 445/21/1 446/22/1 447/23/1 448/24/1
f 449/22/1 450/25/1 451/26/1 452/23/1
f 453/25/1 454/27/1 455/28/1 456/26/1
f 457/9/1 458/10/1 459/11/1 460/12/1
f 461/9/1 462/10/1 463/11/1 464/12/1
f 465/21/1 466/22/1 467/23/1 468/24/1
f 469/22/1 470/25/1 471/26/1 472/23/1
f 473/25/1 474/27/1 475/28/1 476/26/1
f 477/9/1 478/10/1 479/11/1 480/12/1
f 481/9/1 482/10/1 483/11/1 484/12/1
f 485/21/1 486/22/1 487/23/1 488/24/1
f 489/22/1 490/25/1 491/26/1 492/23/1
f 493/25/1 494/27/1 495/28/1 496/26/1
f 497/9/1 498/10/1 499/11/1 500/12/1
f 501/9/1 502/10/1 503/11/1 504/12/1
f 505/21/1 506/22/1 507/23/1 508/24/1
f 509/22/1 510/25/1 511/26/1 512/23/1
f 513/25/1 514/27/1 515/28/1 516/26/1
f 517/9/1 518/10/1 519/11/1 520/12/1
f 521/9/1 522/10/1 523/11/1 524/12/1
f 525/9/1 526/10/1 527/11/1 528/12/1
f 529/21/1 530/22/1 531/23/1 532/24/1
f 533/22/1 534/25/1 535/26/1 536/23/1
f 537/25/1 538/27/1 539/28/1 540/26/1
f 541/33/1 542/34/1 543/35/1 544/36/1
f 545/9/1 546/10/1 547/11/1 548/12/1
f 549/9/1 550/10/1 551/11/1 552/12/1
f 553/21/1 554/22/1 555/23/1 556/24/1
f 557/22/1 558/25/1 559/26/1 560/23/1
f 561/25/1 562/27/1 563/28/1 564/26/1
f 565/9/1 566/10/1 567/11/1 568/12/1
f 569/9/1 570/10/1 571/11/1 572/12/1
f 573/37/1 574/38/1 575/39/1 576/40/1
f 577/38/1 578/41/1 579/42/1 580/39/1
f 581/9/1 582/10/1 583/11/1 584/12/1
f 585/9/1 586/10/1 587/11/1 588/12/1
f 589/9/1 590/10/1 591/11/1 592/12/1
f 593/43/1 594/44/1 595/45/1 596/46/1
f 597/9/1 598/10/1 599/11/1 600/12/1
f 601/9/1 602/10/1 603/11/1 604/12/1
f 605/43/1 606/44/1 607/45/1 608/46/1
f 609/9/1 610/10/1 611/11/1 612/12/1
f 613/9/1 614/10/1 615/11/1 616/12/1
f 617/43/1 618/44/1 619/45/1 620/46/1
f 621/9/1 622/10/1 623/11/1 624/12/1
f 625/9/1 626/10/1 627/11/1 628/12/1
f 629/43/1 630/44/1 631/45/1 632/46/1
f 633/9/1 634/10/1 635/11/1 636/12/1
f 637/9/1 638/10/1 639/11/1 640/12/1
f 641/43/1 642/44/1 643/45/1 644/46/1
f 645/9/1 646/10/1 647/11/1 648/12/1
f 649/17/1 650/18/1 651/19/1 652/20/1
f 653/9/1 654/10/1 655/11/1 656/12/1
f 657/43/1 658/44/1 659/45/1 660/46/1
f 661/9/1 662/10/1 663/11/1 664/12/1
f 665/17/1 666/18/1 667/19/1 668/20/1
f 669/9/1 670/10/1 671/11/1 672/12/1
f 673/43/1 674/44/1 675/45/1 676/46/1
f 677/9/1 678/10/1 679/11/1 680/12/1
f 681/17/1 682/18/1 683/19/1 684/20/1
f 685/9/1 686/10/1 687/11/1 688/12/1
f 689/43/1 690/44/1 691/45/1 692/46/1
f 693/9/1 694/10/1 695/11/1 696/12/1
f 697/17/1 698/18/1 699/19/1 700/20/1
f 701/9/1 702/10/1 703/11/1 704/12/1
f 705/17/1 706/18/1 707/19/1 708/20/1
f 709/17/1 710/18/1 711/19/1 712/20/1
f 713/17/1 714/18/1 715/19/1 716/20/1
f 717/9/1 718/10/1 719/11/1 720/12/1
f 721/17/1 722/18/1 723/19/1 724/20/1
f 725/9/1 726/10/1 727/11/1 728/12/1
f 729/17/1 730/18/1 731/19/1 732/20/1

